<?xml version="1.0"?>
<svg width="224" height="82" xmlns="http://www.w3.org/2000/svg" xmlns:svg="http://www.w3.org/2000/svg">
 <g class="layer" display="inline">
  <title>Layer 1</title>
  <path d="m137.71,54.73c-1.75,0 -3.32,-0.29 -4.71,-0.89c-1.4,-0.63 -2.5,-1.5 -3.3,-2.62c-0.79,-1.13 -1.19,-2.43 -1.19,-3.93l4.56,0c0.1,1.12 0.54,2.04 1.31,2.77c0.8,0.72 1.91,1.08 3.33,1.08c1.47,0 2.62,-0.35 3.44,-1.05c0.83,-0.72 1.24,-1.64 1.24,-2.76c0,-0.88 -0.26,-1.59 -0.79,-2.14c-0.5,-0.55 -1.13,-0.97 -1.91,-1.27c-0.75,-0.3 -1.79,-0.62 -3.14,-0.97c-1.7,-0.45 -3.08,-0.9 -4.15,-1.35c-1.05,-0.47 -1.95,-1.2 -2.7,-2.17c-0.75,-0.97 -1.12,-2.27 -1.12,-3.89c0,-1.5 0.37,-2.81 1.12,-3.93c0.75,-1.12 1.8,-1.98 3.15,-2.58c1.34,-0.6 2.9,-0.9 4.67,-0.9c2.52,0 4.58,0.64 6.18,1.91c1.62,1.25 2.52,2.97 2.69,5.16l-4.71,0c-0.08,-0.94 -0.53,-1.76 -1.35,-2.43c-0.82,-0.67 -1.91,-1.01 -3.26,-1.01c-1.22,0 -2.22,0.31 -2.99,0.94c-0.77,0.62 -1.16,1.52 -1.16,2.69c0,0.8 0.24,1.46 0.71,1.98c0.5,0.5 1.12,0.9 1.87,1.2c0.75,0.3 1.77,0.62 3.07,0.97c1.72,0.48 3.12,0.95 4.19,1.43c1.1,0.47 2.02,1.21 2.77,2.2c0.77,0.98 1.16,2.29 1.16,3.93c0,1.32 -0.36,2.57 -1.08,3.74c-0.7,1.18 -1.74,2.12 -3.11,2.85c-1.35,0.7 -2.94,1.04 -4.79,1.04zm18.99,-17.39l0,11.41c0,0.77 0.17,1.33 0.52,1.68c0.38,0.33 1,0.49 1.87,0.49l2.62,0l0,3.55l-3.36,0c-1.92,0 -3.4,-0.45 -4.42,-1.34c-1.02,-0.9 -1.53,-2.36 -1.53,-4.38l0,-11.41l-2.43,0l0,-3.48l2.43,0l0,-5.13l4.3,0l0,5.13l5.01,0l0,3.48l-5.01,0zm17.89,17.47c-1.95,0 -3.71,-0.44 -5.28,-1.31c-1.57,-0.9 -2.81,-2.15 -3.7,-3.74c-0.9,-1.62 -1.35,-3.49 -1.35,-5.61c0,-2.1 0.46,-3.96 1.39,-5.58c0.92,-1.62 2.18,-2.87 3.77,-3.74c1.6,-0.87 3.38,-1.31 5.35,-1.31c1.98,0 3.76,0.44 5.36,1.31c1.59,0.87 2.85,2.12 3.77,3.74c0.93,1.62 1.39,3.48 1.39,5.58c0,2.09 -0.48,3.95 -1.42,5.57c-0.95,1.62 -2.25,2.88 -3.9,3.78c-1.62,0.87 -3.41,1.31 -5.38,1.31zm0,-3.7c1.1,0 2.12,-0.27 3.07,-0.79c0.97,-0.52 1.75,-1.31 2.35,-2.36c0.6,-1.05 0.9,-2.32 0.9,-3.81c0,-1.5 -0.29,-2.76 -0.86,-3.78c-0.57,-1.05 -1.33,-1.84 -2.28,-2.36c-0.95,-0.52 -1.97,-0.79 -3.07,-0.79c-1.1,0 -2.12,0.27 -3.07,0.79c-0.92,0.52 -1.66,1.31 -2.21,2.36c-0.54,1.02 -0.82,2.28 -0.82,3.78c0,2.22 0.56,3.94 1.68,5.16c1.15,1.2 2.59,1.8 4.31,1.8zm19.18,-14.26c0.62,-1.05 1.45,-1.86 2.47,-2.43c1.05,-0.6 2.28,-0.9 3.7,-0.9l0,4.41l-1.08,0c-1.67,0 -2.94,0.43 -3.82,1.28c-0.85,0.84 -1.27,2.32 -1.27,4.41l0,10.85l-4.27,0l0,-20.61l4.27,0l0,2.99zm28.99,6.81c0,0.77 -0.05,1.47 -0.15,2.09l-15.75,0c0.12,1.65 0.73,2.97 1.83,3.97c1.1,1 2.45,1.5 4.04,1.5c2.3,0 3.92,-0.96 4.87,-2.88l4.6,0c-0.63,1.89 -1.76,3.45 -3.41,4.67c-1.62,1.2 -3.64,1.8 -6.06,1.8c-1.97,0 -3.74,-0.44 -5.31,-1.31c-1.55,-0.9 -2.77,-2.15 -3.67,-3.74c-0.87,-1.62 -1.31,-3.49 -1.31,-5.61c0,-2.12 0.43,-3.98 1.28,-5.58c0.87,-1.62 2.08,-2.87 3.62,-3.74c1.58,-0.87 3.37,-1.31 5.39,-1.31c1.95,0 3.68,0.42 5.2,1.27c1.53,0.85 2.71,2.05 3.56,3.59c0.85,1.53 1.27,3.28 1.27,5.28zm-4.45,-1.35c-0.03,-1.57 -0.59,-2.83 -1.69,-3.78c-1.09,-0.94 -2.45,-1.42 -4.08,-1.42c-1.47,0 -2.73,0.48 -3.77,1.42c-1.05,0.93 -1.68,2.19 -1.87,3.78l11.41,0zm12.91,-13.84l0,26l-4.26,0l0,-26l4.26,0zm10.58,8.87l0,11.41c0,0.77 0.17,1.33 0.52,1.68c0.38,0.33 1,0.49 1.87,0.49l2.62,0l0,3.55l-3.36,0c-1.92,0 -3.4,-0.45 -4.42,-1.34c-1.02,-0.9 -1.53,-2.36 -1.53,-4.38l0,-11.41l-2.44,0l0,-3.48l2.44,0l0,-5.13l4.3,0l0,5.13l5.01,0l0,3.48l-5.01,0z" fill="white" id="svg_1"/>
  <rect fill="white" height="74.83" id="svg_2" opacity="0.2" rx="37.42" width="74.83"/>
  <rect fill="white" height="49.89" id="svg_3" rx="24.94" transform="matrix(1 0 0 1 0 0)" width="49.89" x="32.74" y="31.18"/>
  <text fill="#ffffff" font-family="Times" font-size="23" id="svg_4" stroke-width="0" text-anchor="middle" x="177.5" xml:space="preserve" y="76">Here</text>
 </g>
</svg>