<svg version="1.1" id="Layer_1" xmlns="http://www.w3.org/2000/svg" xmlns:xlink="http://www.w3.org/1999/xlink" x="0px" y="0px"
	 width="100%" viewBox="0 0 387 160" enable-background="new 0 0 387 160" xml:space="preserve">
<path fill="#FFFEFE" opacity="1.000000" stroke="none" 
	d="
M1.000000,67.000000 
	C1.000000,45.008926 1.000000,23.017855 0.999999,1.020087 
	C129.938736,1.013391 258.877472,1.013391 387.908081,1.013391 
	C387.908081,54.250275 387.908081,107.500763 387.908081,160.875626 
	C259.000092,160.875626 130.000061,160.875626 1.000000,160.875626 
	C1.000000,134.916428 1.000000,108.926872 1.284395,82.716667 
	C2.050131,84.585579 2.550912,86.670883 3.009764,88.765373 
	C7.012609,107.036797 16.401514,121.832603 31.616182,132.790314 
	C46.095234,143.218216 62.373665,147.209915 80.357231,146.111969 
	C105.450012,167.855621 143.706421,159.141785 156.289993,129.373474 
	C164.914795,108.970276 160.162659,90.665138 145.054321,74.364021 
	C145.428970,53.685947 137.941513,36.218651 123.678482,22.605253 
	C106.843239,6.536786 86.260544,-1.036381 62.602795,3.028998 
	C36.281780,7.552035 17.478600,22.065935 7.056167,46.749397 
	C4.331755,53.201630 2.981409,60.234043 1.000000,67.000000 
M376.625305,92.286919 
	C374.661163,93.220627 372.371368,93.782471 370.796967,95.161224 
	C366.849548,98.618141 362.607697,98.746834 358.289825,96.628952 
	C354.996277,95.013481 352.190613,92.638023 353.115570,87.713470 
	C359.883331,87.713470 366.511414,87.713470 373.139526,87.713470 
	C383.699951,87.713470 385.048279,85.701233 381.229279,75.533569 
	C380.765930,74.300064 380.178314,73.085060 379.468079,71.976997 
	C374.495270,64.218666 363.451263,61.424545 354.634094,65.648247 
	C345.154175,70.189423 341.032562,81.160164 344.729645,92.011353 
	C347.857269,101.191116 357.821136,106.696289 367.470215,104.615456 
	C374.060669,103.194221 378.726837,99.630112 381.334320,92.718216 
	C379.623260,92.529816 378.523743,92.408752 376.625305,92.286919 
M224.622604,96.319321 
	C218.383896,98.596870 213.283981,98.249931 211.644608,94.339790 
	C209.300583,88.748985 205.474701,90.281799 201.163773,90.733383 
	C201.449478,96.571838 204.304092,100.459160 209.172943,102.589546 
	C216.020676,105.585793 223.348999,106.598755 229.482239,101.575516 
	C232.519043,99.088318 235.134109,94.825439 235.812424,90.989693 
	C237.105042,83.680405 233.015625,79.298294 224.407257,76.498978 
	C220.621994,75.268059 216.687195,74.295677 213.158417,72.530121 
	C209.076019,70.487587 208.648819,65.306114 211.882706,62.506912 
	C214.934448,59.865414 222.294067,59.685379 224.192734,63.077736 
	C227.063828,68.207504 231.047318,67.043533 235.276749,66.777313 
	C235.276749,66.085571 235.367981,65.583344 235.263306,65.125954 
	C233.023911,55.341629 221.418945,50.545902 210.510330,54.882336 
	C204.519684,57.263767 200.993439,62.361324 201.213898,68.321327 
	C201.423477,73.986885 204.751877,78.240875 210.826553,80.340828 
	C214.747528,81.696266 218.858841,82.563995 222.667755,84.166367 
	C228.759155,86.728951 229.465302,90.497330 224.622604,96.319321 
M272.791656,73.494560 
	C272.009735,75.503754 270.985046,77.454666 270.486420,79.531868 
	C267.798553,90.728447 273.962463,101.420410 284.530701,104.108673 
	C295.784607,106.971352 306.825684,100.915916 309.773071,90.264572 
	C312.565735,80.172333 308.303131,70.225708 299.284882,65.790794 
	C290.143433,61.295296 280.143524,63.992386 272.791656,73.494560 
M310.601562,137.744476 
	C315.660248,137.498108 320.901215,136.820435 322.297791,143.807098 
	C322.405304,144.344864 323.867126,144.897141 324.727631,144.945908 
	C327.349548,145.094467 329.985229,144.999771 333.516266,144.999771 
	C332.028168,141.318283 330.823456,138.337875 329.529816,135.137527 
	C332.791290,132.972672 334.503845,129.015228 332.517059,125.516129 
	C330.967377,122.786774 327.170288,119.966743 324.149017,119.698624 
	C315.446289,118.926292 306.630707,119.425957 297.538239,119.425957 
	C297.538239,127.790192 297.538239,136.168823 297.538239,144.729492 
	C301.264893,144.729492 304.670868,144.729492 307.933868,144.729492 
	C308.569305,142.271927 309.128204,140.110382 310.601562,137.744476 
M220.069580,125.601334 
	C220.069580,131.999573 220.069580,138.397812 220.069580,144.680573 
	C224.178848,144.680573 227.434799,144.680573 230.886459,144.680573 
	C231.037613,141.288177 231.174850,138.208038 231.317490,135.006668 
	C235.993195,135.006668 240.217545,135.006668 244.708740,135.006668 
	C244.878799,138.395218 245.033173,141.471176 245.191788,144.631607 
	C248.899811,144.631607 252.265228,144.631607 255.540833,144.631607 
	C255.540833,135.885284 255.540833,127.519081 255.540833,119.243759 
	C251.865433,119.243759 248.612640,119.243759 244.833374,119.243759 
	C244.833374,122.639412 244.833374,125.708839 244.833374,128.901276 
	C240.058807,128.901276 235.831802,128.901276 231.325989,128.901276 
	C231.151276,125.529938 230.992081,122.457695 230.829208,119.314774 
	C227.115417,119.314774 223.758881,119.314774 220.069687,119.314774 
	C220.069687,121.355698 220.069687,122.995316 220.069580,125.601334 
M287.320984,138.311768 
	C283.491852,138.309097 279.655731,138.431671 275.838409,138.218124 
	C274.849884,138.162811 273.920319,137.054474 272.963654,136.429855 
	C273.963867,135.846359 274.931335,134.840042 275.970459,134.759552 
	C278.949554,134.528900 281.962250,134.567184 284.953186,134.696930 
	C288.827972,134.865021 289.568695,133.040161 288.264526,129.223312 
	C284.766418,129.223312 281.120026,129.436295 277.518921,129.125015 
	C275.940796,128.988602 274.455231,127.781906 272.927612,127.061188 
	C274.395386,126.439270 275.840515,125.354240 277.335114,125.281128 
	C282.072693,125.049347 286.828766,125.195442 291.905334,125.195442 
	C291.770996,122.587814 291.682343,120.867050 291.599060,119.250137 
	C281.417999,119.250137 271.834442,119.250137 262.203491,119.250137 
	C262.203491,127.956345 262.203491,136.318726 262.203491,144.650543 
	C272.685638,144.650543 282.754822,144.650543 292.850647,144.650543 
	C292.850647,142.501160 292.850647,140.713806 292.850647,138.586533 
	C291.182007,138.486801 289.723114,138.399582 287.320984,138.311768 
M349.259521,125.848061 
	C355.310394,125.499573 361.361267,125.151085 367.513214,124.796768 
	C367.513214,122.774384 367.513214,121.053612 367.513214,119.349808 
	C357.455872,119.349808 347.750916,119.349808 338.125397,119.349808 
	C338.125397,128.043503 338.125397,136.295822 338.125397,144.709869 
	C348.526703,144.709869 358.595459,144.709869 368.721741,144.709869 
	C368.721741,142.525589 368.721741,140.641220 368.721741,138.291931 
	C362.733215,138.291931 357.097229,138.364075 351.467133,138.214539 
	C350.617981,138.191986 349.796265,137.135452 348.961853,136.557236 
	C349.753571,135.937561 350.511993,134.840958 351.342865,134.782959 
	C354.492310,134.563232 357.670593,134.559891 360.828094,134.700089 
	C365.081146,134.888962 365.514771,132.874466 364.260376,129.219254 
	C360.085266,129.219254 356.093872,129.401611 352.138672,129.103485 
	C351.013947,129.018677 349.994598,127.535690 349.259521,125.848061 
M255.697159,85.469284 
	C255.697159,80.877090 255.697159,76.284897 255.697159,71.452698 
	C259.084290,71.241768 261.832611,71.070625 264.811890,70.885101 
	C264.811890,68.682083 264.811890,66.782204 264.811890,64.658646 
	C261.708893,64.381355 258.837158,64.124733 255.945282,63.866310 
	C255.743988,60.622337 255.574371,57.888992 255.405807,55.172630 
	C252.415176,55.172630 250.002136,55.172630 247.307861,55.172630 
	C247.150864,58.232056 247.009018,60.996536 246.867157,63.761017 
	C244.660767,64.551170 242.399200,66.113281 242.576141,67.316948 
	C242.862442,69.264626 244.750900,70.976791 245.962799,72.788406 
	C247.084824,78.187630 247.077972,84.162430 247.086243,90.137215 
	C247.103455,102.589569 252.746521,106.778069 265.079102,103.249062 
	C264.996887,101.410538 264.912170,99.516457 264.831940,97.722633 
	C255.702850,96.678139 255.702820,96.678139 255.695953,87.947487 
	C255.695572,87.449181 255.696381,86.950874 255.697159,85.469284 
M319.870911,64.529472 
	C319.511780,66.063148 318.858215,67.593681 318.841797,69.131020 
	C318.743988,78.293381 318.793335,87.457306 318.793274,96.620712 
	C318.793243,99.035149 318.793274,101.449593 318.793274,103.832245 
	C321.918549,103.832245 324.180328,103.832245 326.972778,103.832245 
	C326.972778,96.407448 326.863098,89.281242 327.005432,82.160065 
	C327.133118,75.771179 329.331940,73.517082 335.562988,72.795013 
	C336.521759,72.683899 337.472229,72.500832 338.598633,72.324043 
	C338.598633,69.481239 338.598633,66.899681 338.598633,62.934654 
	C334.266205,64.861221 330.672211,66.459404 327.162933,68.019928 
	C326.468140,64.265533 326.468140,64.265533 319.870911,64.529472 
z"/>
<path fill="#FEE3E3" opacity="1.000000" stroke="none" 
	d="
M80.051521,145.973465 
	C62.373665,147.209915 46.095234,143.218216 31.616182,132.790314 
	C16.401514,121.832603 7.012609,107.036797 3.009764,88.765373 
	C2.550912,86.670883 2.050131,84.585579 1.284395,82.248009 
	C1.000000,77.310745 1.000000,72.621490 1.000000,67.466118 
	C2.981409,60.234043 4.331755,53.201630 7.056167,46.749397 
	C17.478600,22.065935 36.281780,7.552035 62.602795,3.028998 
	C86.260544,-1.036381 106.843239,6.536786 123.678482,22.605253 
	C137.941513,36.218651 145.428970,53.685947 144.745453,74.250168 
	C131.207550,63.358215 116.264099,59.548946 99.341087,64.112175 
	C77.117973,70.104546 61.992310,92.850235 64.716568,115.411827 
	C66.188385,127.601006 71.704628,137.410889 80.051521,145.973465 
z"/>
<path fill="#FA7376" opacity="1.000000" stroke="none" 
	d="
M80.357231,146.111969 
	C71.704628,137.410889 66.188385,127.601006 64.716568,115.411827 
	C61.992310,92.850235 77.117973,70.104546 99.341087,64.112175 
	C116.264099,59.548946 131.207550,63.358215 144.755585,74.698380 
	C160.162659,90.665138 164.914795,108.970276 156.289993,129.373474 
	C143.706421,159.141785 105.450012,167.855621 80.357231,146.111969 
z"/>
<path fill="#FA787B" opacity="1.000000" stroke="none" 
	d="
M377.024750,92.287300 
	C378.523743,92.408752 379.623260,92.529816 381.334320,92.718216 
	C378.726837,99.630112 374.060669,103.194221 367.470215,104.615456 
	C357.821136,106.696289 347.857269,101.191116 344.729645,92.011353 
	C341.032562,81.160164 345.154175,70.189423 354.634094,65.648247 
	C363.451263,61.424545 374.495270,64.218666 379.468079,71.976997 
	C380.178314,73.085060 380.765930,74.300064 381.229279,75.533569 
	C385.048279,85.701233 383.699951,87.713470 373.139526,87.713470 
	C366.511414,87.713470 359.883331,87.713470 353.115570,87.713470 
	C352.190613,92.638023 354.996277,95.013481 358.289825,96.628952 
	C362.607697,98.746834 366.849548,98.618141 370.796967,95.161224 
	C372.371368,93.782471 374.661163,93.220627 377.024750,92.287300 
M355.992523,80.879738 
	C361.899292,80.879738 367.806061,80.879738 373.765747,80.879738 
	C373.101685,74.544998 370.065369,71.508972 364.536438,70.970985 
	C358.874390,70.420029 354.240265,73.361900 352.748718,78.119957 
	C351.939240,80.702293 353.122253,81.008324 355.992523,80.879738 
z"/>
<path fill="#FA777A" opacity="1.000000" stroke="none" 
	d="
M224.944336,96.102211 
	C229.465302,90.497330 228.759155,86.728951 222.667755,84.166367 
	C218.858841,82.563995 214.747528,81.696266 210.826553,80.340828 
	C204.751877,78.240875 201.423477,73.986885 201.213898,68.321327 
	C200.993439,62.361324 204.519684,57.263767 210.510330,54.882336 
	C221.418945,50.545902 233.023911,55.341629 235.263306,65.125954 
	C235.367981,65.583344 235.276749,66.085571 235.276749,66.777313 
	C231.047318,67.043533 227.063828,68.207504 224.192734,63.077736 
	C222.294067,59.685379 214.934448,59.865414 211.882706,62.506912 
	C208.648819,65.306114 209.076019,70.487587 213.158417,72.530121 
	C216.687195,74.295677 220.621994,75.268059 224.407257,76.498978 
	C233.015625,79.298294 237.105042,83.680405 235.812424,90.989693 
	C235.134109,94.825439 232.519043,99.088318 229.482239,101.575516 
	C223.348999,106.598755 216.020676,105.585793 209.172943,102.589546 
	C204.304092,100.459160 201.449478,96.571838 201.163773,90.733383 
	C205.474701,90.281799 209.300583,88.748985 211.644608,94.339790 
	C213.283981,98.249931 218.383896,98.596870 224.944336,96.102211 
z"/>
<path fill="#FA7679" opacity="1.000000" stroke="none" 
	d="
M272.970703,73.167160 
	C280.143524,63.992386 290.143433,61.295296 299.284882,65.790794 
	C308.303131,70.225708 312.565735,80.172333 309.773071,90.264572 
	C306.825684,100.915916 295.784607,106.971352 284.530701,104.108673 
	C273.962463,101.420410 267.798553,90.728447 270.486420,79.531868 
	C270.985046,77.454666 272.009735,75.503754 272.970703,73.167160 
M298.717560,74.832451 
	C293.984924,70.714264 289.261169,69.882370 284.559052,72.339012 
	C280.052765,74.693359 277.885437,79.992363 278.723358,86.607201 
	C279.644470,93.879311 284.317780,98.201645 290.866241,97.838173 
	C296.816956,97.507881 301.963531,92.304550 301.841614,85.736305 
	C301.777313,82.273613 300.157867,78.839783 298.717560,74.832451 
z"/>
<path fill="#FA7679" opacity="1.000000" stroke="none" 
	d="
M310.144348,137.846664 
	C309.128204,140.110382 308.569305,142.271927 307.933868,144.729492 
	C304.670868,144.729492 301.264893,144.729492 297.538239,144.729492 
	C297.538239,136.168823 297.538239,127.790192 297.538239,119.425957 
	C306.630707,119.425957 315.446289,118.926292 324.149017,119.698624 
	C327.170288,119.966743 330.967377,122.786774 332.517059,125.516129 
	C334.503845,129.015228 332.791290,132.972672 329.529816,135.137527 
	C330.823456,138.337875 332.028168,141.318283 333.516266,144.999771 
	C329.985229,144.999771 327.349548,145.094467 324.727631,144.945908 
	C323.867126,144.897141 322.405304,144.344864 322.297791,143.807098 
	C320.901215,136.820435 315.660248,137.498108 310.144348,137.846664 
M321.637543,126.880165 
	C317.422180,126.108200 313.206787,125.336235 308.623047,124.496811 
	C308.623047,127.383430 308.623047,129.057144 308.623047,130.934494 
	C311.985870,130.934494 315.007202,131.293274 317.875946,130.787201 
	C319.370544,130.523560 320.596161,128.735260 321.637543,126.880165 
z"/>
<path fill="#FA7578" opacity="1.000000" stroke="none" 
	d="
M220.069641,125.118134 
	C220.069687,122.995316 220.069687,121.355698 220.069687,119.314774 
	C223.758881,119.314774 227.115417,119.314774 230.829208,119.314774 
	C230.992081,122.457695 231.151276,125.529938 231.325989,128.901276 
	C235.831802,128.901276 240.058807,128.901276 244.833374,128.901276 
	C244.833374,125.708839 244.833374,122.639412 244.833374,119.243759 
	C248.612640,119.243759 251.865433,119.243759 255.540833,119.243759 
	C255.540833,127.519081 255.540833,135.885284 255.540833,144.631607 
	C252.265228,144.631607 248.899811,144.631607 245.191788,144.631607 
	C245.033173,141.471176 244.878799,138.395218 244.708740,135.006668 
	C240.217545,135.006668 235.993195,135.006668 231.317490,135.006668 
	C231.174850,138.208038 231.037613,141.288177 230.886459,144.680573 
	C227.434799,144.680573 224.178848,144.680573 220.069580,144.680573 
	C220.069580,138.397812 220.069580,131.999573 220.069641,125.118134 
z"/>
<path fill="#FA7578" opacity="1.000000" stroke="none" 
	d="
M287.792603,138.312073 
	C289.723114,138.399582 291.182007,138.486801 292.850647,138.586533 
	C292.850647,140.713806 292.850647,142.501160 292.850647,144.650543 
	C282.754822,144.650543 272.685638,144.650543 262.203491,144.650543 
	C262.203491,136.318726 262.203491,127.956345 262.203491,119.250137 
	C271.834442,119.250137 281.417999,119.250137 291.599060,119.250137 
	C291.682343,120.867050 291.770996,122.587814 291.905334,125.195442 
	C286.828766,125.195442 282.072693,125.049347 277.335114,125.281128 
	C275.840515,125.354240 274.395386,126.439270 272.927612,127.061188 
	C274.455231,127.781906 275.940796,128.988602 277.518921,129.125015 
	C281.120026,129.436295 284.766418,129.223312 288.264526,129.223312 
	C289.568695,133.040161 288.827972,134.865021 284.953186,134.696930 
	C281.962250,134.567184 278.949554,134.528900 275.970459,134.759552 
	C274.931335,134.840042 273.963867,135.846359 272.963654,136.429840 
	C273.920319,137.054474 274.849884,138.162811 275.838409,138.218124 
	C279.655731,138.431671 283.491852,138.309097 287.792603,138.312073 
z"/>
<path fill="#FA7578" opacity="1.000000" stroke="none" 
	d="
M349.093231,126.270981 
	C349.994598,127.535690 351.013947,129.018677 352.138672,129.103485 
	C356.093872,129.401611 360.085266,129.219254 364.260376,129.219254 
	C365.514771,132.874466 365.081146,134.888962 360.828094,134.700089 
	C357.670593,134.559891 354.492310,134.563232 351.342865,134.782959 
	C350.511993,134.840958 349.753571,135.937561 348.961853,136.557220 
	C349.796265,137.135452 350.617981,138.191986 351.467133,138.214539 
	C357.097229,138.364075 362.733215,138.291931 368.721741,138.291931 
	C368.721741,140.641220 368.721741,142.525589 368.721741,144.709869 
	C358.595459,144.709869 348.526703,144.709869 338.125397,144.709869 
	C338.125397,136.295822 338.125397,128.043503 338.125397,119.349808 
	C347.750916,119.349808 357.455872,119.349808 367.513214,119.349808 
	C367.513214,121.053612 367.513214,122.774384 367.513214,124.796768 
	C361.361267,125.151085 355.310394,125.499573 349.093231,126.270981 
z"/>
<path fill="#FA777A" opacity="1.000000" stroke="none" 
	d="
M255.696899,85.960922 
	C255.696381,86.950874 255.695572,87.449181 255.695953,87.947487 
	C255.702820,96.678139 255.702850,96.678139 264.831940,97.722633 
	C264.912170,99.516457 264.996887,101.410538 265.079102,103.249062 
	C252.746521,106.778069 247.103455,102.589569 247.086243,90.137215 
	C247.077972,84.162430 247.084824,78.187630 245.962799,72.788406 
	C244.750900,70.976791 242.862442,69.264626 242.576141,67.316948 
	C242.399200,66.113281 244.660767,64.551170 246.867157,63.761017 
	C247.009018,60.996536 247.150864,58.232056 247.307861,55.172630 
	C250.002136,55.172630 252.415176,55.172630 255.405807,55.172630 
	C255.574371,57.888992 255.743988,60.622337 255.945282,63.866310 
	C258.837158,64.124733 261.708893,64.381355 264.811890,64.658646 
	C264.811890,66.782204 264.811890,68.682083 264.811890,70.885101 
	C261.832611,71.070625 259.084290,71.241768 255.697159,71.452698 
	C255.697159,76.284897 255.697159,80.877090 255.696899,85.960922 
z"/>
<path fill="#FA777A" opacity="1.000000" stroke="none" 
	d="
M320.300049,64.438683 
	C326.468140,64.265533 326.468140,64.265533 327.162933,68.019928 
	C330.672211,66.459404 334.266205,64.861221 338.598633,62.934654 
	C338.598633,66.899681 338.598633,69.481239 338.598633,72.324043 
	C337.472229,72.500832 336.521759,72.683899 335.562988,72.795013 
	C329.331940,73.517082 327.133118,75.771179 327.005432,82.160065 
	C326.863098,89.281242 326.972778,96.407448 326.972778,103.832245 
	C324.180328,103.832245 321.918549,103.832245 318.793274,103.832245 
	C318.793274,101.449593 318.793243,99.035149 318.793274,96.620712 
	C318.793335,87.457306 318.743988,78.293381 318.841797,69.131020 
	C318.858215,67.593681 319.511780,66.063148 320.300049,64.438683 
z"/>
<path fill="#FFF8F8" opacity="1.000000" stroke="none" 
	d="
M355.560364,80.879181 
	C353.122253,81.008324 351.939240,80.702293 352.748718,78.119957 
	C354.240265,73.361900 358.874390,70.420029 364.536438,70.970985 
	C370.065369,71.508972 373.101685,74.544998 373.765747,80.879738 
	C367.806061,80.879738 361.899292,80.879738 355.560364,80.879181 
z"/>
<path fill="#FFFCFC" opacity="1.000000" stroke="none" 
	d="
M298.979065,75.112686 
	C300.157867,78.839783 301.777313,82.273613 301.841614,85.736305 
	C301.963531,92.304550 296.816956,97.507881 290.866241,97.838173 
	C284.317780,98.201645 279.644470,93.879311 278.723358,86.607201 
	C277.885437,79.992363 280.052765,74.693359 284.559052,72.339012 
	C289.261169,69.882370 293.984924,70.714264 298.979065,75.112686 
z"/>
<path fill="#FFF3F3" opacity="1.000000" stroke="none" 
	d="
M321.790405,127.257904 
	C320.596161,128.735260 319.370544,130.523560 317.875946,130.787201 
	C315.007202,131.293274 311.985870,130.934494 308.623047,130.934494 
	C308.623047,129.057144 308.623047,127.383430 308.623047,124.496811 
	C313.206787,125.336235 317.422180,126.108200 321.790405,127.257904 
z"/>
</svg>